<mxfile host="app.diagrams.net" modified="2024-06-06T10:06:27.809Z" agent="Mozilla/5.0 (Windows NT 10.0; Win64; x64) AppleWebKit/537.36 (KHTML, like Gecko) Chrome/125.0.0.0 Safari/537.36 Edg/125.0.0.0" etag="c4cMrBbKjuSz0ank9uLi" version="24.4.13" type="github">
  <diagram name="第 1 页" id="sikFW44JEs64xDhdAzlJ">
    <mxGraphModel dx="1379" dy="785" grid="0" gridSize="10" guides="1" tooltips="1" connect="1" arrows="1" fold="1" page="1" pageScale="1" pageWidth="3300" pageHeight="2339" math="0" shadow="0">
      <root>
        <mxCell id="0" />
        <mxCell id="1" parent="0" />
        <mxCell id="LVsm_QtswtQ5Oewl0RsJ-12" value="" style="edgeStyle=orthogonalEdgeStyle;rounded=0;orthogonalLoop=1;jettySize=auto;html=1;" edge="1" parent="1" source="LVsm_QtswtQ5Oewl0RsJ-1" target="LVsm_QtswtQ5Oewl0RsJ-11">
          <mxGeometry relative="1" as="geometry" />
        </mxCell>
        <mxCell id="LVsm_QtswtQ5Oewl0RsJ-1" value="&lt;font style=&quot;font-size: 14px;&quot;&gt;二级空间配置器&lt;/font&gt;" style="rounded=0;whiteSpace=wrap;html=1;fillColor=#f8cecc;strokeColor=#b85450;comic=1;" vertex="1" parent="1">
          <mxGeometry x="400" y="54" width="120" height="60" as="geometry" />
        </mxCell>
        <mxCell id="LVsm_QtswtQ5Oewl0RsJ-5" value="" style="edgeStyle=orthogonalEdgeStyle;rounded=0;orthogonalLoop=1;jettySize=auto;html=1;" edge="1" parent="1" source="LVsm_QtswtQ5Oewl0RsJ-2" target="LVsm_QtswtQ5Oewl0RsJ-4">
          <mxGeometry relative="1" as="geometry" />
        </mxCell>
        <mxCell id="LVsm_QtswtQ5Oewl0RsJ-25" style="edgeStyle=orthogonalEdgeStyle;rounded=0;orthogonalLoop=1;jettySize=auto;html=1;exitX=1;exitY=0.5;exitDx=0;exitDy=0;entryX=0.5;entryY=0;entryDx=0;entryDy=0;" edge="1" parent="1" source="LVsm_QtswtQ5Oewl0RsJ-2" target="LVsm_QtswtQ5Oewl0RsJ-17">
          <mxGeometry relative="1" as="geometry" />
        </mxCell>
        <mxCell id="LVsm_QtswtQ5Oewl0RsJ-2" value="&lt;font style=&quot;font-size: 13px;&quot;&gt;判断自由链表中&lt;/font&gt;&lt;div style=&quot;font-size: 13px;&quot;&gt;&lt;font style=&quot;font-size: 13px;&quot;&gt;是否有节点？&lt;/font&gt;&lt;/div&gt;" style="rhombus;whiteSpace=wrap;html=1;fillColor=#dae8fc;strokeColor=#6c8ebf;rounded=0;comic=1;" vertex="1" parent="1">
          <mxGeometry x="386" y="245" width="148" height="100" as="geometry" />
        </mxCell>
        <mxCell id="LVsm_QtswtQ5Oewl0RsJ-4" value="&lt;font style=&quot;font-size: 14px;&quot;&gt;直接返回自由链表上面的节点&lt;/font&gt;" style="whiteSpace=wrap;html=1;fillColor=#fff2cc;strokeColor=#d6b656;rounded=0;comic=1;" vertex="1" parent="1">
          <mxGeometry x="173" y="265" width="123" height="61" as="geometry" />
        </mxCell>
        <mxCell id="LVsm_QtswtQ5Oewl0RsJ-8" value="&lt;font style=&quot;font-size: 14px;&quot;&gt;有&lt;/font&gt;" style="text;html=1;align=center;verticalAlign=middle;resizable=0;points=[];autosize=1;strokeColor=none;fillColor=none;" vertex="1" parent="1">
          <mxGeometry x="336" y="265" width="32" height="29" as="geometry" />
        </mxCell>
        <mxCell id="LVsm_QtswtQ5Oewl0RsJ-13" value="" style="edgeStyle=orthogonalEdgeStyle;rounded=0;orthogonalLoop=1;jettySize=auto;html=1;" edge="1" parent="1" source="LVsm_QtswtQ5Oewl0RsJ-11" target="LVsm_QtswtQ5Oewl0RsJ-2">
          <mxGeometry relative="1" as="geometry" />
        </mxCell>
        <mxCell id="LVsm_QtswtQ5Oewl0RsJ-11" value="&lt;span style=&quot;font-size: 14px;&quot;&gt;哈希映射找到对应的自由链表&lt;/span&gt;" style="rounded=0;whiteSpace=wrap;html=1;fillColor=#d5e8d4;strokeColor=#82b366;comic=1;" vertex="1" parent="1">
          <mxGeometry x="394" y="145" width="132" height="62.5" as="geometry" />
        </mxCell>
        <mxCell id="LVsm_QtswtQ5Oewl0RsJ-16" value="&lt;font style=&quot;font-size: 14px;&quot;&gt;无&lt;/font&gt;" style="text;html=1;align=center;verticalAlign=middle;resizable=0;points=[];autosize=1;strokeColor=none;fillColor=none;" vertex="1" parent="1">
          <mxGeometry x="580" y="265.5" width="32" height="29" as="geometry" />
        </mxCell>
        <mxCell id="LVsm_QtswtQ5Oewl0RsJ-22" value="" style="edgeStyle=orthogonalEdgeStyle;rounded=0;orthogonalLoop=1;jettySize=auto;html=1;" edge="1" parent="1" source="LVsm_QtswtQ5Oewl0RsJ-17" target="LVsm_QtswtQ5Oewl0RsJ-21">
          <mxGeometry relative="1" as="geometry" />
        </mxCell>
        <mxCell id="LVsm_QtswtQ5Oewl0RsJ-29" value="" style="edgeStyle=orthogonalEdgeStyle;rounded=0;orthogonalLoop=1;jettySize=auto;html=1;" edge="1" parent="1" source="LVsm_QtswtQ5Oewl0RsJ-17" target="LVsm_QtswtQ5Oewl0RsJ-28">
          <mxGeometry relative="1" as="geometry" />
        </mxCell>
        <mxCell id="LVsm_QtswtQ5Oewl0RsJ-36" style="edgeStyle=orthogonalEdgeStyle;rounded=0;orthogonalLoop=1;jettySize=auto;html=1;exitX=1;exitY=0.5;exitDx=0;exitDy=0;" edge="1" parent="1" source="LVsm_QtswtQ5Oewl0RsJ-17" target="LVsm_QtswtQ5Oewl0RsJ-35">
          <mxGeometry relative="1" as="geometry" />
        </mxCell>
        <mxCell id="LVsm_QtswtQ5Oewl0RsJ-17" value="&lt;font style=&quot;font-size: 13px;&quot;&gt;判断内存池中的可用&lt;/font&gt;&lt;span style=&quot;font-size: 13px; background-color: initial;&quot;&gt;内存&lt;/span&gt;" style="rhombus;whiteSpace=wrap;html=1;fillColor=#dae8fc;strokeColor=#6c8ebf;rounded=0;comic=1;" vertex="1" parent="1">
          <mxGeometry x="534" y="335" width="189" height="100" as="geometry" />
        </mxCell>
        <mxCell id="LVsm_QtswtQ5Oewl0RsJ-21" value="&lt;font style=&quot;font-size: 14px;&quot;&gt;返回第一个节点，将剩余19个节点插入对应的自由链表中&lt;/font&gt;" style="whiteSpace=wrap;html=1;fillColor=#fff2cc;strokeColor=#d6b656;rounded=0;comic=1;" vertex="1" parent="1">
          <mxGeometry x="310" y="461" width="186" height="61" as="geometry" />
        </mxCell>
        <mxCell id="LVsm_QtswtQ5Oewl0RsJ-24" value="&lt;span style=&quot;font-size: 14px;&quot;&gt;可以申请到20个节点&lt;/span&gt;" style="text;html=1;align=center;verticalAlign=middle;resizable=0;points=[];autosize=1;strokeColor=none;fillColor=none;" vertex="1" parent="1">
          <mxGeometry x="398" y="354" width="146" height="29" as="geometry" />
        </mxCell>
        <mxCell id="LVsm_QtswtQ5Oewl0RsJ-28" value="&lt;font style=&quot;font-size: 14px;&quot;&gt;将第一个返回，将剩余的节点插入到对应的自由链表中&lt;/font&gt;" style="whiteSpace=wrap;html=1;fillColor=#fff2cc;strokeColor=#d6b656;rounded=0;comic=1;" vertex="1" parent="1">
          <mxGeometry x="534" y="492" width="190" height="70" as="geometry" />
        </mxCell>
        <mxCell id="LVsm_QtswtQ5Oewl0RsJ-30" value="&lt;span style=&quot;font-size: 14px;&quot;&gt;可以申请到 [1,19] 个节点&lt;/span&gt;" style="text;html=1;align=center;verticalAlign=middle;resizable=0;points=[];autosize=1;strokeColor=none;fillColor=none;" vertex="1" parent="1">
          <mxGeometry x="628" y="443" width="173" height="29" as="geometry" />
        </mxCell>
        <mxCell id="LVsm_QtswtQ5Oewl0RsJ-32" value="&lt;span style=&quot;font-size: 14px;&quot;&gt;无法申请到任何节点&lt;/span&gt;" style="text;html=1;align=center;verticalAlign=middle;resizable=0;points=[];autosize=1;strokeColor=none;fillColor=none;" vertex="1" parent="1">
          <mxGeometry x="723" y="357" width="144" height="29" as="geometry" />
        </mxCell>
        <mxCell id="LVsm_QtswtQ5Oewl0RsJ-38" value="" style="edgeStyle=orthogonalEdgeStyle;rounded=0;orthogonalLoop=1;jettySize=auto;html=1;" edge="1" parent="1" source="LVsm_QtswtQ5Oewl0RsJ-35" target="LVsm_QtswtQ5Oewl0RsJ-37">
          <mxGeometry relative="1" as="geometry" />
        </mxCell>
        <mxCell id="LVsm_QtswtQ5Oewl0RsJ-35" value="&lt;span style=&quot;font-size: 14px;&quot;&gt;先将剩余内存挂到一个合适的自由链表上&lt;/span&gt;" style="whiteSpace=wrap;html=1;fillColor=#d5e8d4;strokeColor=#82b366;rounded=0;comic=1;" vertex="1" parent="1">
          <mxGeometry x="875" y="354.25" width="155" height="61.5" as="geometry" />
        </mxCell>
        <mxCell id="LVsm_QtswtQ5Oewl0RsJ-40" value="" style="edgeStyle=orthogonalEdgeStyle;rounded=0;orthogonalLoop=1;jettySize=auto;html=1;" edge="1" parent="1" source="LVsm_QtswtQ5Oewl0RsJ-37" target="LVsm_QtswtQ5Oewl0RsJ-39">
          <mxGeometry relative="1" as="geometry" />
        </mxCell>
        <mxCell id="LVsm_QtswtQ5Oewl0RsJ-54" value="" style="edgeStyle=orthogonalEdgeStyle;rounded=0;orthogonalLoop=1;jettySize=auto;html=1;" edge="1" parent="1" source="LVsm_QtswtQ5Oewl0RsJ-37" target="LVsm_QtswtQ5Oewl0RsJ-51">
          <mxGeometry relative="1" as="geometry" />
        </mxCell>
        <mxCell id="LVsm_QtswtQ5Oewl0RsJ-37" value="&lt;font style=&quot;font-size: 14px;&quot;&gt;使用malloc申请40个节点内存&lt;/font&gt;" style="rhombus;whiteSpace=wrap;html=1;fillColor=#dae8fc;strokeColor=#6c8ebf;rounded=0;comic=1;" vertex="1" parent="1">
          <mxGeometry x="855.5" y="463" width="194" height="106" as="geometry" />
        </mxCell>
        <mxCell id="LVsm_QtswtQ5Oewl0RsJ-39" value="&lt;font style=&quot;font-size: 14px;&quot;&gt;一半拿来用(将第一个返回，剩余19个放入自由链表中)&lt;/font&gt;&lt;div&gt;&lt;font style=&quot;font-size: 14px;&quot;&gt;一半放入内存池备用&lt;/font&gt;&lt;/div&gt;" style="whiteSpace=wrap;html=1;fillColor=#fff2cc;strokeColor=#d6b656;rounded=0;comic=1;" vertex="1" parent="1">
          <mxGeometry x="643" y="629" width="209" height="77" as="geometry" />
        </mxCell>
        <mxCell id="LVsm_QtswtQ5Oewl0RsJ-41" value="&lt;font style=&quot;font-size: 14px;&quot;&gt;申请成功&lt;/font&gt;" style="text;html=1;align=center;verticalAlign=middle;resizable=0;points=[];autosize=1;strokeColor=none;fillColor=none;" vertex="1" parent="1">
          <mxGeometry x="770" y="488" width="74" height="29" as="geometry" />
        </mxCell>
        <mxCell id="LVsm_QtswtQ5Oewl0RsJ-44" value="&lt;font style=&quot;font-size: 14px;&quot;&gt;申请失败&lt;/font&gt;" style="text;html=1;align=center;verticalAlign=middle;resizable=0;points=[];autosize=1;strokeColor=none;fillColor=none;" vertex="1" parent="1">
          <mxGeometry x="1063" y="482" width="74" height="29" as="geometry" />
        </mxCell>
        <mxCell id="LVsm_QtswtQ5Oewl0RsJ-55" value="" style="edgeStyle=orthogonalEdgeStyle;rounded=0;orthogonalLoop=1;jettySize=auto;html=1;" edge="1" parent="1" source="LVsm_QtswtQ5Oewl0RsJ-51" target="LVsm_QtswtQ5Oewl0RsJ-53">
          <mxGeometry relative="1" as="geometry" />
        </mxCell>
        <mxCell id="LVsm_QtswtQ5Oewl0RsJ-51" value="&lt;div style=&quot;font-size: 14px;&quot;&gt;&lt;font style=&quot;font-size: 14px;&quot;&gt;&lt;br&gt;&lt;/font&gt;&lt;/div&gt;&lt;div style=&quot;font-size: 14px;&quot;&gt;&lt;font style=&quot;font-size: 14px;&quot;&gt;尝试在比当前节点大的&lt;/font&gt;&lt;/div&gt;&lt;div style=&quot;font-size: 14px;&quot;&gt;&lt;font style=&quot;font-size: 14px;&quot;&gt;自由链表上寻找节点&lt;/font&gt;&lt;/div&gt;&lt;div style=&quot;font-size: 14px;&quot;&gt;&lt;font style=&quot;font-size: 14px;&quot;&gt;进行切割得到内存&lt;/font&gt;&lt;/div&gt;&lt;div style=&quot;font-size: 14px;&quot;&gt;&lt;br&gt;&lt;/div&gt;" style="rounded=0;whiteSpace=wrap;html=1;fillColor=#d5e8d4;strokeColor=#82b366;comic=1;" vertex="1" parent="1">
          <mxGeometry x="1154" y="482" width="151" height="69" as="geometry" />
        </mxCell>
        <mxCell id="LVsm_QtswtQ5Oewl0RsJ-57" value="" style="edgeStyle=orthogonalEdgeStyle;rounded=0;orthogonalLoop=1;jettySize=auto;html=1;" edge="1" parent="1" source="LVsm_QtswtQ5Oewl0RsJ-53" target="LVsm_QtswtQ5Oewl0RsJ-56">
          <mxGeometry relative="1" as="geometry" />
        </mxCell>
        <mxCell id="LVsm_QtswtQ5Oewl0RsJ-60" value="" style="edgeStyle=orthogonalEdgeStyle;rounded=0;orthogonalLoop=1;jettySize=auto;html=1;" edge="1" parent="1" source="LVsm_QtswtQ5Oewl0RsJ-53" target="LVsm_QtswtQ5Oewl0RsJ-59">
          <mxGeometry relative="1" as="geometry" />
        </mxCell>
        <mxCell id="LVsm_QtswtQ5Oewl0RsJ-53" value="&lt;font style=&quot;font-size: 14px;&quot;&gt;能够找到&lt;/font&gt;" style="rhombus;whiteSpace=wrap;html=1;fillColor=#dae8fc;strokeColor=#6c8ebf;rounded=0;comic=1;" vertex="1" parent="1">
          <mxGeometry x="1119" y="582" width="221" height="94" as="geometry" />
        </mxCell>
        <mxCell id="LVsm_QtswtQ5Oewl0RsJ-56" value="&lt;div&gt;&lt;span style=&quot;font-size: 14px;&quot;&gt;进行切割，然后返回节点，将切割得到的另一部分&lt;/span&gt;&lt;span style=&quot;font-size: 14px; background-color: initial;&quot;&gt;小内存挂到&lt;/span&gt;&lt;/div&gt;&lt;div&gt;&lt;span style=&quot;font-size: 14px;&quot;&gt;其相应的&lt;/span&gt;&lt;span style=&quot;font-size: 14px; background-color: initial;&quot;&gt;自由链表上&lt;/span&gt;&lt;/div&gt;" style="whiteSpace=wrap;html=1;fillColor=#fff2cc;strokeColor=#d6b656;rounded=0;comic=1;" vertex="1" parent="1">
          <mxGeometry x="908" y="694" width="208" height="67" as="geometry" />
        </mxCell>
        <mxCell id="LVsm_QtswtQ5Oewl0RsJ-58" value="&lt;font style=&quot;font-size: 14px;&quot;&gt;成功&lt;/font&gt;" style="text;html=1;align=center;verticalAlign=middle;resizable=0;points=[];autosize=1;strokeColor=none;fillColor=none;" vertex="1" parent="1">
          <mxGeometry x="1054" y="600" width="46" height="29" as="geometry" />
        </mxCell>
        <mxCell id="LVsm_QtswtQ5Oewl0RsJ-59" value="&lt;font style=&quot;font-size: 14px;&quot;&gt;使用一级空间配置器进行内存分配，如果还是申请失败，则直接抛出异常&lt;/font&gt;" style="whiteSpace=wrap;html=1;fillColor=#dae8fc;strokeColor=#6c8ebf;rounded=0;comic=1;" vertex="1" parent="1">
          <mxGeometry x="1403" y="595" width="174.5" height="68" as="geometry" />
        </mxCell>
        <mxCell id="LVsm_QtswtQ5Oewl0RsJ-61" value="&lt;font style=&quot;font-size: 14px;&quot;&gt;失败&lt;/font&gt;" style="text;html=1;align=center;verticalAlign=middle;resizable=0;points=[];autosize=1;strokeColor=none;fillColor=none;" vertex="1" parent="1">
          <mxGeometry x="1342" y="602" width="46" height="29" as="geometry" />
        </mxCell>
      </root>
    </mxGraphModel>
  </diagram>
</mxfile>
